<?xml version="1.0" encoding="UTF-8"?>
<!DOCTYPE svg PUBLIC "-//W3C//DTD SVG 1.1//EN" "http://www.w3.org/Graphics/SVG/1.1/DTD/svg11.dtd">
<svg version="1.1" xmlns="http://www.w3.org/2000/svg" xmlns:xlink="http://www.w3.org/1999/xlink" x="0" y="0" width="50" height="50" viewBox="0, 0, 500, 500">
  <g id="Background">
    <rect x="0" y="0" width="500" height="500" fill="#FFFFFF"/>
  </g>
  <g id="Layer_1">
    <path d="M302.279,139.322 C318.411,139.322 332.988,146.134 343.22,157.035 C355.996,154.519 368,149.851 378.837,143.424 C374.649,156.521 365.756,167.513 354.175,174.455 C365.521,173.099 376.331,170.084 386.39,165.623 C378.87,176.871 369.36,186.75 358.402,194.658 C358.51,197.063 358.564,199.482 358.564,201.914 C357.844,270.101 313.839,334.323 247.984,354.417 C233.453,358.851 218.721,360.661 203.604,361.44 L195.701,361.44 C166.274,361.216 137.929,351.686 113.06,336.338 L113.06,336.307 C117.478,336.867 121.932,337.019 126.38,337.084 C152.658,337.084 176.843,328.117 196.039,313.074 C171.495,312.621 150.781,296.405 143.644,274.121 C147.068,274.776 150.582,275.127 154.196,275.127 C159.312,275.127 164.267,274.442 168.974,273.16 C143.314,268.008 123.981,245.338 123.981,218.162 C123.981,217.926 123.981,217.691 123.985,217.457 C131.548,221.658 140.196,224.181 149.391,224.472 C134.341,214.414 124.438,197.246 124.438,177.787 C124.438,167.508 127.204,157.873 132.032,149.589 C159.696,183.523 201.025,205.853 247.641,208.192 C246.685,204.087 246.188,199.806 246.188,195.41 C246.188,164.435 271.302,139.322 302.279,139.322 z" fill="#5E9FCA"/>
  </g>
</svg>
